<svg xmlns:dc="http://purl.org/dc/elements/1.1/" xmlns:cc="http://creativecommons.org/ns#" xmlns:rdf="http://www.w3.org/1999/02/22-rdf-syntax-ns#" xmlns:svg="http://www.w3.org/2000/svg" xmlns="http://www.w3.org/2000/svg" xmlns:sodipodi="http://sodipodi.sourceforge.net/DTD/sodipodi-0.dtd" xmlns:inkscape="http://www.inkscape.org/namespaces/inkscape" width="960" height="960" viewBox="0 0 253.99999 254.00001" id="svg8" inkscape:version="0.92.3 (2405546, 2018-03-11)" sodipodi:docname="favicon.svg"><defs id="defs2" /><sodipodi:namedview id="base" pagecolor="#ffffff" bordercolor="#666666" borderopacity="1" inkscape:pageopacity="0" inkscape:pageshadow="2" inkscape:zoom=".7" inkscape:cx="139.05143" inkscape:cy="421.50546" inkscape:document-units="mm" inkscape:current-layer="layer1" showgrid="false" units="px" inkscape:window-width="1920" inkscape:window-height="1025" inkscape:window-x="0" inkscape:window-y="0" inkscape:window-maximized="1" /><g inkscape:label="レイヤー 1" inkscape:groupmode="layer" id="layer1" transform="translate(0,-42.999983)"><path inkscape:connector-curvature="0" style="fill-rule:evenodd;stroke-width:17.4807148" d="M177.19528 50.257128H19.352329c-10.8516383.0-19.73030185 6.969408-19.73030185 15.487597V282.57073c0 8.51818 8.87866355 15.48759 19.73030185 15.48759H177.19528c10.85166.0 19.73031-6.96941 19.73031-15.48759V65.744725c0-8.518189-8.87865-15.487597-19.73031-15.487597zM98.273812 287.21699c-14.205862.0-25.649504-8.98281-25.649504-20.13387.0-11.15104 11.443642-20.13379 25.649504-20.13379 14.205868.0 25.649498 8.98275 25.649498 20.13379.0 11.15106-11.44363 20.13387-25.649498 20.13387zM177.19528 236.10801H19.352329V81.23225H177.19528z" id="path58" /><path style="fill:#fff;stroke:#ff0;stroke-width:.26458332;stroke-opacity:1" id="rect13" d="M19.352329 81.232246h157.84294v154.87575H19.352329z" /><text style="font-style:normal;font-weight:400;font-size:141.1111145px;line-height:1.25;font-family:sans-serif;letter-spacing:0;word-spacing:0;fill:red;fill-opacity:1;stroke:none;stroke-width:.26458332" x="23.056547" y="213.46724" id="text158"><tspan sodipodi:role="line" id="tspan156" x="23.056547" y="213.46724" style="font-size:141.1111145px;fill:red;stroke-width:.26458332">暗</tspan></text><path inkscape:connector-curvature="0" style="fill:#00f;fill-rule:evenodd;stroke-width:9.68669701" d="m128.4673 150.53658v30.4692h27.71616l73.90976-81.251204-27.71616-30.46919zm27.71616 20.31281h-18.47743v-20.31281h9.23872v10.15639h9.23871zm95.15882-94.454514-12.01035 13.20331-27.71616-30.469193 12.01035-13.203311a9.2017643 10.115773.0 0 1 13.0266.0l14.68956 16.148674c3.6031 3.960996 3.6031 10.35953.0 14.32052z" id="path131" /><path style="fill:#000;stroke-width:.26458332" id="rect160" d="M61.232143 241.81546h77.863091v47.625H61.232143z" /><circle style="fill:#fff;stroke-width:.26458332" id="path164" cx="99.21875" cy="267.70682" r="23.623512" /></g></svg>