<svg version="1.0" xmlns="http://www.w3.org/2000/svg" width="700pt" height="700pt" viewBox="0 0 700 700"><g transform="translate(0.000000,700.000000) scale(0.100000,-0.100000)" fill="#000" stroke="none"><path d="M6244 6976c-41-19-84-60-228-219-98-107-178-198-178-202 1-3 170-193 378-421 302-332 380-412 391-403 49 41 342 379 362 417 35 68 39 160 12 234-18 47-58 96-242 3e2-121 133-237 255-257 271-69 52-157 61-238 23z"/><path d="M415 6789c-169-28-324-134-386-264l-29-60V3384 303l30-61C71 161 163 77 257 33l72-33h2382 2383l75 37c134 66 228 179 251 305 6 31 10 822 10 2072v2021l438 481c240 265 445 490 455 501 17 19 7 30-359 434-207 228-378 416-381 419s-38-31-79-75l-74-80v140c0 161-15 234-62 307-69 108-207 196-351 223-68 13-374 15-2315 14-1231-1-2259-5-2287-10zm4475-1054v-215l-656-723c-361-397-662-728-669-735-7-8-20-12-29-10-12 2-4 23 41 103 79 140 185 373 233 511 22 65 39 118 38 119-2 1-34 10-71 19s-91 25-120 36-57 20-63 20-18-26-28-57c-58-187-238-598-315-720l-21-33-282 1-283 1 85 29c47 16 91 31 97 34 22 8-126 404-241 647l-51 107-122-59-123-59 19-43c10-24 36-79 56-123 62-134 205-505 205-532 0-3-132-4-294-2l-293 4v-90-90l768 3 769 3v-186-185h-620-620v-668c0-368-3-743-6-833l-7-164h138 138l-7 118-7 117h535 536v-115-115h125 125v675 675h218 219l289 318 289 319 3-1071c1-589 0-1077-3-1083-3-10-449-13-2180-13H530v2140 2140h2180 2180v-215zm-840-1915v-60h125 125v-140-140h-215c-180 0-215 2-215 14 0 10-13 16-37 18l-38 3-3 183-2 182h130 130v-60zm-510-550v-70h40 40v-165-165h-535-535v235 235h495 495v-70zm80-790v-240h-535-535v240 240h535 535v-240zm-710-1046c227-68 394-240 455-469 21-80 21-232 0-315-59-231-250-421-477-475-81-19-225-19-306 0-105 25-206 80-291 161-138 130-203 279-204 464 0 127 18 203 76 315 88 169 268 3e2 460 335 71 12 220 4 287-16z"/><path d="M2751 5494c-50-54-91-101-91-104 0-4 76-76 170-161 93-85 170-158 170-163 0-4-197-7-442-4l-443 3 3-87 3-88h1007 1007v88l1 87-516-4-515-3 20 23c10 13 41 47 68 75 27 29 48 56 46 61s-69 69-149 143c-80 73-168 156-196 183l-51 48-92-97z"/><path d="M850 38e2V2440h135 135v110 110h225 225v-110-110h140 140v1360 1360h-5e2-5e2V38e2zm720 690v-480h-225-225v473c0 261 3 477 7 480 3 4 105 7 225 7h218v-480zm0-1155v-485l-222 2-223 3-3 470c-1 259 0 476 3 483 3 9 58 12 225 12h220v-485z"/></g></svg>